<svg xmlns="http://www.w3.org/2000/svg" version="1.1" xmlns:xlink="http://www.w3.org/1999/xlink" xmlns:svgjs="http://svgjs.dev/svgjs" width="100%" height="100%" viewBox="0 0 1000 600"><rect width="1000" height="600" x="0" y="0" fill="#454545"/><g><rect width="333.3333333333333" height="333.3333333333333" rx="13.333333333333334" ry="13.333333333333334" y="195.91293606731293" fill="#337499" transform="matrix(0.7196701886463595,0,0,0.7196701886463593,0,39.06228905445896)" x="173.69071960449216"/><path d="M414.1635898772743 437.5796171423197L392.91408658108287 437.5796171423197L376.79789026093755 399.109659629973L303.946713932281 399.109659629973L287.83051761213574 437.5796171423197L266.55116950794394 437.5796171423197L330.15045535651717 287.5796121329677L350.56430402870114 287.5796121329677L414.1635898772743 437.5796171423197ZM340.2678452686083 311.6643721891848L311.67651920435065 380.21789616580264L311.67651920435065 381.29230925381233L369.03824018086766 381.29230925381233L369.03824018086766 380.21789616580264L340.6856725806121 311.6643721891848L340.2678452686083 311.6643721891848Z " fill="#454545" transform="matrix(0.7196701886463595,0,0,0.7196701886463593,0,39.06228905445896)"/><path d="M697.6924480480291 401.6421079607209L682.2410597731232 401.6421079607209L670.5223102387845 373.66901879449387L617.5492220659681 373.66901879449387L605.8304725316294 401.6421079607209L590.357382868697 401.6421079607209L636.6030407532818 292.5709317392645L651.4467901634442 292.5709317392645L697.6924480480291 401.6421079607209ZM643.9598112942834 310.08395187669294L623.1698815648455 359.9320401736856L623.1698815648455 360.7132901426416L664.8799493518807 360.7132901426416L664.8799493518807 359.9320401736856L644.2636307266552 310.08395187669294L643.9598112942834 310.08395187669294ZM778.2480004025947 391.96328890087824Q766.9198758527339 403.2046078986328 751.7723070101997 403.2046078986328Q736.6030367796391 403.2046078986328 725.5136274980703 391.63776808047993L725.5136274980703 391.63776808047993L725.0361969614862 391.63776808047993L725.0361969614862 437.57960653269305L710.8217878040937 437.57960653269305L710.8217878040937 321.95461112721756L723.3217873073884 321.95461112721756L725.0361969614862 331.95895100745855L725.5136274980703 331.95895100745855Q736.6030367796391 320.3921111893057 751.7723070101997 320.3921111893057Q766.9198758527339 320.3921111893057 778.2480004025947 331.63343018706024Q789.5761249524553 342.8964505728414 789.5761249524553 361.7983595439692Q789.5761249524553 380.7002685150971 778.2480004025947 391.96328890087824ZM749.7323765357037 333.6733606615563L749.7323765357037 333.6733606615563Q735.6698770944972 333.6733606615563 725.0361969614862 345.392110195895L725.0361969614862 345.392110195895L725.0361969614862 378.2046088920435Q735.6698770944972 389.9233584263822 749.7323765357037 389.9233584263822L749.7323765357037 389.9233584263822Q761.2992163538565 389.9233584263822 768.3304660744598 382.58828927340716Q775.361715795063 375.2315187324056 775.361715795063 361.7983595439692Q775.361715795063 348.36520035553275 768.3304660744598 341.0084298145312Q761.2992163538565 333.6733606615563 749.7323765357037 333.6733606615563ZM876.8374062072257 391.96328890087824Q865.5092816573651 403.2046078986328 850.361712814831 403.2046078986328Q835.1924425842701 403.2046078986328 824.1030333027015 391.63776808047993L824.1030333027015 391.63776808047993L823.647304154144 391.63776808047993L823.647304154144 437.57960653269305L809.411193608725 437.57960653269305L809.411193608725 321.95461112721756L821.9111931120196 321.95461112721756L823.647304154144 331.95895100745855L824.1030333027015 331.95895100745855Q835.1924425842701 320.3921111893057 850.361712814831 320.3921111893057Q865.5092816573651 320.3921111893057 876.8374062072257 331.63343018706024Q888.1655307570866 342.8964505728414 888.1655307570866 361.7983595439692Q888.1655307570866 380.7002685150971 876.8374062072257 391.96328890087824ZM848.321782340335 333.6733606615563L848.321782340335 333.6733606615563Q834.2592828991285 333.6733606615563 823.647304154144 345.392110195895L823.647304154144 345.392110195895L823.647304154144 378.2046088920435Q834.2592828991285 389.9233584263822 848.321782340335 389.9233584263822L848.321782340335 389.9233584263822Q859.8886221584878 389.9233584263822 866.919871879091 382.58828927340716Q873.9511215996943 375.2315187324056 873.9511215996943 361.7983595439692Q873.9511215996943 348.36520035553275 866.919871879091 341.0084298145312Q859.8886221584878 333.6733606615563 848.321782340335 333.6733606615563ZM918.7861892625531 321.95461112721756L918.7861892625531 321.95461112721756Q918.7861892625531 328.2046108788649 923.7124043445808 332.2627704398304Q928.6386194266083 336.3209300007957 935.9736885795833 337.97023549081376Q943.3304591205849 339.6195409808319 951.9893129431796 342.0283950517792Q960.669868153801 344.45895051075325 968.0049373067759 347.25842956617856Q975.3617078477773 350.07961000963047 980.2879229298051 356.56832502956996Q985.1924366238061 363.05704004950934 985.1924366238061 372.735859109352L985.1924366238061 372.735859109352Q985.1924366238061 386.16901829778845 974.1898328943435 394.69766379222386Q963.1655277768546 403.2046078986328 943.4823688367708 403.2046078986328Q923.799209896687 403.2046078986328 905.9823703268869 394.76276795630355L905.9823703268869 394.76276795630355L905.9823703268869 380.85217823128295L906.7636202958427 380.85217823128295Q923.017959927731 389.9233584263822 943.7861882691425 389.9233584263822L943.7861882691425 389.9233584263822Q971.1299371825994 389.9233584263822 971.1299371825994 371.8026994242103L971.1299371825994 371.8026994242103Q971.1299371825994 362.8834289452969 957.8486877103489 358.67335966814557L957.8486877103489 358.67335966814557Q952.0761184952858 356.807040297862 945.0448687746825 355.0709292557378Q938.0136190540793 353.35651960164006 930.8955637813699 351.0127696947723Q923.799209896687 348.6690197879046 917.9398351295176 345.47891574800127Q912.0804603623483 342.26711032007137 908.4129257858608 336.55964526908787Q904.7236898213466 330.85218021810437 904.7236898213466 323.03968052854526L904.7236898213466 323.03968052854526Q904.7236898213466 309.4546116239229 915.444175506464 300.2315217126378Q926.1429598035547 291.0084318013527 944.3504243578329 291.0084318013527Q962.5361875240844 291.0084318013527 977.228027218061 296.6507926882565L977.228027218061 296.6507926882565L977.228027218061 309.9320421605071L976.1429578167333 309.9320421605071Q961.4511181227567 303.98586184123144 947.931153382214 303.98586184123144Q934.4111886416715 303.98586184123144 926.5986889521123 308.7601672070732Q918.7861892625531 313.5127711848883 918.7861892625531 321.95461112721756ZM999.4285471692249 361.7983595439692Q999.4285471692249 343.2002700052131 1010.3660467346076 331.8070412912727Q1021.3035462999906 320.3921111893057 1039.3373997500562 320.3921111893057Q1057.3929545881488 320.3921111893057 1068.3955583176112 331.8070412912727Q1079.4198634351 343.2002700052131 1079.4198634351 361.7983595439692Q1079.4198634351 380.3964490827254 1068.3955583176112 391.7896777966658Q1057.3929545881488 403.2046078986328 1039.3373997500562 403.2046078986328Q1021.3035462999906 403.2046078986328 1010.3660467346076 391.7896777966658Q999.4285471692249 380.3964490827254 999.4285471692249 361.7983595439692ZM1021.3686504640702 383.130823974071Q1029.11604598955 390.2271778587539 1039.4242053021626 390.2271778587539Q1049.7323646147752 390.2271778587539 1057.4580587522282 383.130823974071Q1065.2054542777078 376.0127687013616 1065.2054542777078 361.711553991863Q1065.2054542777078 347.432040670391 1057.4580587522282 340.4007909497878Q1049.7323646147752 333.36954122918456 1039.4242053021626 333.36954122918456Q1029.11604598955 333.36954122918456 1021.3686504640702 340.4007909497878Q1013.6429563266172 347.432040670391 1013.6429563266172 361.711553991863Q1013.6429563266172 376.0127687013616 1021.3686504640702 383.130823974071ZM1100.5136125969098 287.57961249315724L1114.728021754302 287.57961249315724L1114.728021754302 401.6421079607209L1100.5136125969098 401.6421079607209L1100.5136125969098 287.57961249315724ZM1135.8217709161117 361.7983595439692Q1135.8217709161117 343.2002700052131 1146.7592704814947 331.8070412912727Q1157.6967700468776 320.3921111893057 1175.7523248849698 320.3921111893057Q1193.7861783350354 320.3921111893057 1204.8104834525243 331.8070412912727Q1215.8347885700136 343.2002700052131 1215.8347885700136 361.7983595439692Q1215.8347885700136 380.3964490827254 1204.8104834525243 391.7896777966658Q1193.7861783350354 403.2046078986328 1175.7523248849698 403.2046078986328Q1157.6967700468776 403.2046078986328 1146.7592704814947 391.7896777966658Q1135.8217709161117 380.3964490827254 1135.8217709161117 361.7983595439692ZM1157.7835755989836 383.130823974071Q1165.5092697364366 390.2271778587539 1175.8174290490492 390.2271778587539Q1186.1472897496888 390.2271778587539 1193.8729838871418 383.130823974071Q1201.5986780245944 376.0127687013616 1201.5986780245944 361.711553991863Q1201.5986780245944 347.432040670391 1193.8729838871418 340.4007909497878Q1186.1472897496888 333.36954122918456 1175.8174290490492 333.36954122918456Q1165.5092697364366 333.36954122918456 1157.7835755989836 340.4007909497878Q1150.036180073504 347.432040670391 1150.036180073504 361.711553991863Q1150.036180073504 376.0127687013616 1157.7835755989836 383.130823974071Z " fill="#337499" transform="matrix(0.7196701886463595,0,0,0.7196701886463593,0,39.06228905445896)"/></g></svg>